<svg width="65" height="65" viewBox="0 0 65 65" fill="none" xmlns="http://www.w3.org/2000/svg">
<path d="M45.3816 0H19.5C8.73045 0 0 8.73045 0 19.5V45.3816C0 56.1511 8.73045 64.8816 19.5 64.8816H45.3816C56.1511 64.8816 64.8816 56.1511 64.8816 45.3816V19.5C64.8816 8.73045 56.1511 0 45.3816 0Z" fill="url(#paint0_linear)"/>
<path fill-rule="evenodd" clip-rule="evenodd" d="M49.4877 25.7722L55.8701 38.3804C56.39 39.3683 55.9645 40.5445 55.0663 41.0148C54.0737 41.5324 52.8917 41.1092 52.419 40.1682L51.8043 38.9919H51.71L43.6728 39.0391H43.6257L43.0582 40.1682C42.5383 41.1092 41.3566 41.4856 40.4109 41.0148C39.4655 40.4973 39.0872 39.3215 39.5599 38.3804L45.8951 25.7722C46.2258 25.1136 46.8876 24.7372 47.5494 24.6902H47.6914H47.8334C48.5424 24.7372 49.2042 25.1136 49.4877 25.7722ZM47.7386 30.9002L45.6115 35.0872H49.8189L47.7386 30.9002Z" fill="white"/>
<path d="M32.4207 41.2032C31.3334 41.2032 30.4824 40.3093 30.4824 39.2743V30.8061C30.4824 29.724 31.3807 28.8772 32.4207 28.8772C33.5081 28.8772 34.359 29.7711 34.359 30.8061V39.2743C34.359 40.3561 33.5081 41.2032 32.4207 41.2032Z" fill="white"/>
<path d="M33.792 31.8411C34.5484 31.0413 34.5011 29.8181 33.6975 29.0654L28.5917 24.2668C27.788 23.5141 26.5588 23.5611 25.8024 24.3609C25.0933 25.1606 25.1406 26.3838 25.897 27.1365L31.0027 31.9352C31.8064 32.6408 33.0356 32.5938 33.792 31.8411Z" fill="white"/>
<path d="M25.2353 38.3804L18.8531 25.7722C18.5222 25.1136 17.8603 24.7372 17.1984 24.6902C17.1512 24.6902 17.1039 24.6902 17.0566 24.6902C17.0093 24.6902 16.9621 24.6902 16.9148 24.6902C16.2529 24.7372 15.5911 25.1136 15.2601 25.7722L8.92521 38.3804C8.45245 39.3215 8.83064 40.4973 9.77615 41.0148C10.7217 41.4856 11.9036 41.1092 12.4236 40.1682L12.9909 38.9919C13.0382 38.9919 13.0382 38.9919 13.0855 38.9919L21.1224 38.9451L21.7369 40.121C22.2097 41.062 23.3916 41.4856 24.3844 40.968C25.3299 40.5445 25.7081 39.3683 25.2353 38.3804ZM14.9765 35.0872L17.1039 30.9002L19.2313 35.0872H14.9765Z" fill="white"/>
<g filter="url(#filter0_d)">
<path d="M31.8065 31.0413C31.0501 30.2416 31.0974 29.0184 31.9011 28.2656L36.1559 24.2668C36.9596 23.5141 38.1887 23.5611 38.9453 24.3609C39.7015 25.1606 39.6543 26.3838 38.8505 27.1365L34.5958 31.1354C33.7921 31.8881 32.5629 31.8411 31.8065 31.0413Z" fill="white"/>
</g>
<defs>
<filter id="filter0_d" x="29.2676" y="23.7304" width="12.2165" height="11.9413" filterUnits="userSpaceOnUse" color-interpolation-filters="sRGB">
<feFlood flood-opacity="0" result="BackgroundImageFix"/>
<feColorMatrix in="SourceAlpha" type="matrix" values="0 0 0 0 0 0 0 0 0 0 0 0 0 0 0 0 0 0 127 0"/>
<feOffset dy="2"/>
<feGaussianBlur stdDeviation="1"/>
<feColorMatrix type="matrix" values="0 0 0 0 0 0 0 0 0 0 0 0 0 0 0 0 0 0 0.25 0"/>
<feBlend mode="normal" in2="BackgroundImageFix" result="effect1_dropShadow"/>
<feBlend mode="normal" in="SourceGraphic" in2="effect1_dropShadow" result="shape"/>
</filter>
<linearGradient id="paint0_linear" x1="4.37404" y1="16.0381" x2="76.5457" y2="69.2556" gradientUnits="userSpaceOnUse">
<stop stop-color="#FF3E71"/>
<stop offset="1" stop-color="#FF7268"/>
</linearGradient>
</defs>
</svg>
