<svg width="62" height="23" viewBox="0 0 62 23" fill="none" xmlns="http://www.w3.org/2000/svg">
<path fill-rule="evenodd" clip-rule="evenodd" d="M53.1319 2.66118L61.4501 19.0939C62.1278 20.3815 61.5733 21.9144 60.4026 22.5275C59.1087 23.202 57.5683 22.6502 56.9521 21.4239L56.1511 19.891H56.0278L45.5531 19.9523H45.4915L44.7521 21.4239C44.0743 22.6502 42.5339 23.1407 41.3016 22.5275C40.0693 21.8531 39.5763 20.3202 40.1925 19.0939L48.4491 2.66118C48.8804 1.80276 49.743 1.31223 50.6056 1.25092H50.7905H50.9753C51.8996 1.31223 52.7622 1.80276 53.1319 2.66118ZM50.8524 9.34455L48.0797 14.8017H53.5635L50.8524 9.34455Z" fill="#FF4D6E"/>
<path d="M30.8886 22.7728C29.4714 22.7728 28.3623 21.6078 28.3623 20.2589V9.22199C28.3623 7.81173 29.533 6.70804 30.8886 6.70804C32.3057 6.70804 33.4148 7.87304 33.4148 9.22199V20.2589C33.4148 21.6691 32.3057 22.7728 30.8886 22.7728Z" fill="#FF4D6E"/>
<path d="M32.6754 10.5709C33.6613 9.52853 33.5997 7.93432 32.5522 6.95326L25.8977 0.699036C24.8502 -0.282019 23.2482 -0.220703 22.2623 0.821668C21.3381 1.86404 21.3997 3.45825 22.3855 4.43931L29.0401 10.6935C30.0876 11.6133 31.6896 11.552 32.6754 10.5709Z" fill="#FF4D6E"/>
<path d="M21.5228 19.0939L13.2046 2.66118C12.7733 1.80276 11.9107 1.31223 11.0481 1.25092C10.9865 1.25092 10.9248 1.25092 10.8632 1.25092C10.8016 1.25092 10.74 1.25092 10.6784 1.25092C9.81576 1.31223 8.95313 1.80276 8.52182 2.66118L0.265265 19.0939C-0.350896 20.3202 0.142033 21.8531 1.37435 22.5275C2.60668 23.1407 4.14708 22.6502 4.82486 21.4239L5.56425 19.891C5.62586 19.891 5.62586 19.891 5.68748 19.891L16.1622 19.8296L16.9632 21.3625C17.5794 22.5889 19.1198 23.1407 20.4137 22.4662C21.646 21.9144 22.139 20.3815 21.5228 19.0939ZM8.15213 14.8017L10.9248 9.34462L13.6976 14.8017H8.15213Z" fill="#FF4D6E"/>
<g filter="url(#filter0_d)">
<path d="M30.0877 9.52853C29.1019 8.48616 29.1635 6.89195 30.2109 5.91089L35.7564 0.699036C36.8039 -0.282019 38.4059 -0.220703 39.3917 0.821668C40.3776 1.86404 40.316 3.45825 39.2685 4.43931L33.7231 9.65116C32.6756 10.6322 31.0736 10.5709 30.0877 9.52853Z" fill="#FF4D6E"/>
</g>
<defs>
<filter id="filter0_d" x="27.3853" y="0" width="14.7089" height="14.3502" filterUnits="userSpaceOnUse" color-interpolation-filters="sRGB">
<feFlood flood-opacity="0" result="BackgroundImageFix"/>
<feColorMatrix in="SourceAlpha" type="matrix" values="0 0 0 0 0 0 0 0 0 0 0 0 0 0 0 0 0 0 127 0"/>
<feOffset dy="2"/>
<feGaussianBlur stdDeviation="1"/>
<feColorMatrix type="matrix" values="0 0 0 0 0 0 0 0 0 0 0 0 0 0 0 0 0 0 0.25 0"/>
<feBlend mode="normal" in2="BackgroundImageFix" result="effect1_dropShadow"/>
<feBlend mode="normal" in="SourceGraphic" in2="effect1_dropShadow" result="shape"/>
</filter>
</defs>
</svg>
